<mxfile host="app.diagrams.net" modified="2022-01-27T14:58:49.556Z" agent="5.0 (X11; Linux x86_64) AppleWebKit/537.36 (KHTML, like Gecko) Chrome/95.0.4638.69 Safari/537.36" etag="7rtdekJp4y_PPclpeDFh" version="16.4.8" type="github">
  <diagram id="fnb83CbjcHutObEVnBT5" name="Page-1">
    <mxGraphModel dx="1416" dy="742" grid="1" gridSize="10" guides="1" tooltips="1" connect="1" arrows="1" fold="1" page="1" pageScale="1" pageWidth="827" pageHeight="1169" math="0" shadow="0">
      <root>
        <mxCell id="0" />
        <mxCell id="1" parent="0" />
        <mxCell id="xOlD_TCT9_zKF5M06AKU-1" value="Pipeline - Architecture V1.0&amp;nbsp;" style="text;html=1;align=center;verticalAlign=middle;resizable=0;points=[];autosize=1;strokeColor=none;fillColor=none;" vertex="1" parent="1">
          <mxGeometry x="240" y="190" width="160" height="20" as="geometry" />
        </mxCell>
      </root>
    </mxGraphModel>
  </diagram>
</mxfile>
